<svg aria-hidden="true" style="position:absolute;width:0;height:0;overflow:hidden" xmlns="http://www.w3.org/2000/svg">
  <defs>
   
    
    
    <symbol id="Logo" viewBox="0 0 206 32">
      <path fill="#fff" style="fill:var(--color1, #fff)" d="M171.165 6.58c-1.784 0-3.217-1.433-3.217-3.275 0-1.814 1.462-3.305 3.275-3.305s3.304 1.433 3.304 3.246a3.339 3.339 0 0 1-3.362 3.334zm-61.148 19.242h-5.322v-22.4h5.41v6.141s2.398-2.047 5.527-2.047c5.293 0 8.422 4.474 8.422 9.358 0 5-3.188 9.387-8.247 9.387-2.368 0-4.123-.673-5.79-2.31v1.872zm-16.932.439c-5.527 0-9.329-3.363-9.329-9.387 0-5.44 3.89-9.358 9.182-9.358 5.176 0 8.831 3.422 8.831 9.826l.002.155.006.252c.006.22.012.411-.007.674H89.137c.468 2.135 2.164 3.158 4.211 3.158 1.682 0 2.818-1.118 3.726-2.275l.163-.21s2.651 1.529 3.895 2.276l.345.21c-1.579 2.808-4.621 4.679-8.393 4.679zm-33.279-.439L52.963 7.867h5.732l3.568 9.943 3.275-9.943h4.357l3.451 10.002 3.538-10.002h5.644l-6.755 17.955h-4.709l-3.334-9.65-3.216 9.65h-4.709zM92.88 12.078c1.696 0 2.632.818 3.275 2.544h-6.814c.673-1.667 1.696-2.544 3.538-2.544zm21.523.468c2.456 0 4.24 1.93 4.24 4.211 0 2.544-1.345 4.678-4.006 4.678-2.836 0-4.678-1.784-4.678-4.562 0-2.602 1.901-4.328 4.445-4.328zm21.407 13.89c-5.498 0-9.709-4.504-9.709-9.504 0-5.381 4.298-9.416 9.826-9.416 5.439 0 9.679 3.918 9.679 9.328 0 5.469-3.948 9.592-9.796 9.592zm.087-13.803c2.544 0 4.299 1.814 4.299 4.124 0 2.807-1.638 4.532-4.328 4.532-2.486 0-4.328-1.871-4.328-4.269 0-2.457 1.725-4.387 4.357-4.387zm23.365 13.189h-4.854l-7.515-17.955h6.082l3.918 10.498 3.685-10.498h5.732l-7.048 17.955zm14.652-17.956h-5.439v17.955h5.439V7.866zm2.924 9.066c0 5 4.211 9.504 9.709 9.504 5.849 0 9.797-4.123 9.797-9.592 0-5.41-4.241-9.328-9.68-9.328-5.526 0-9.826 4.035-9.826 9.416zm14.095-.176c0-2.31-1.754-4.123-4.298-4.123-2.632 0-4.358 1.93-4.358 4.387 0 2.398 1.842 4.27 4.328 4.27 2.69 0 4.328-1.726 4.328-4.533zM201.666 19.346c1.842 0 3.362 1.52 3.362 3.362s-1.52 3.363-3.362 3.363-3.363-1.52-3.363-3.363 1.521-3.362 3.363-3.362z"/>
      <path fill="#ffd723" style="fill:var(--color2, #ffd723)" d="M29.32 27.587c-1.04 1.734-3.552 1.734-4.592 0L10.225 3.417h28.867c2.082 0 3.367 2.271 2.296 4.056L29.32 27.587z"/>
      <path fill="#fff" style="fill:var(--color1, #fff)" d="M14.502 27.587c1.04 1.734 3.552 1.734 4.592 0l14.503-24.17H4.729c-2.082 0-3.367 2.271-2.296 4.056l12.069 20.114z"/>
      <path fill="#f6f6f6" style="fill:var(--color3, #f6f6f6)" d="M10.225 3.417h23.372L21.912 22.894 10.225 3.417z"/>
    </symbol>
    <symbol id="Logo-footer" viewBox="0 0 183 32">
      <path fill="#fff" style="fill: var(--color1, #fff)" d="M152.146 5.849c-1.585 0-2.86-1.274-2.86-2.911 0-1.612 1.3-2.938 2.912-2.938s2.937 1.274 2.937 2.885c-0.003 1.637-1.33 2.963-2.968 2.963-0.007 0-0.015-0-0.022-0h0.001zM93.061 22.953v-19.912h4.809v5.459s2.131-1.819 4.912-1.819c4.705 0 7.486 3.977 7.486 8.318 0 4.444-2.833 8.344-7.33 8.344-2.106 0-3.665-0.598-5.147-2.053v1.664h-4.731zM82.742 23.343c-4.912 0-8.293-2.99-8.293-8.344 0-4.836 3.458-8.318 8.163-8.318 4.601 0 7.85 3.041 7.85 8.734l0.001 0.137c0.001 0.081 0.004 0.155 0.005 0.224v0.001c0.005 0.196 0.010 0.366-0.006 0.6h-11.229c0.416 1.897 1.924 2.807 3.743 2.807 1.495 0 2.505-0.994 3.312-2.022l0.144-0.186s2.357 1.359 3.463 2.023l0.306 0.186c-1.404 2.496-4.107 4.16-7.461 4.16zM53.16 22.953l-6.082-15.961h5.094l3.172 8.838 2.911-8.838h3.873l3.067 8.89 3.145-8.89h5.017l-6.004 15.961h-4.186l-2.962-8.579-2.86 8.579h-4.186zM82.56 10.736c1.508 0 2.34 0.728 2.911 2.261h-6.056c0.598-1.481 1.508-2.261 3.145-2.261zM101.691 11.152c2.183 0 3.77 1.715 3.77 3.743 0 2.262-1.196 4.159-3.561 4.159-2.522 0-4.159-1.585-4.159-4.055 0-2.313 1.69-3.847 3.951-3.847zM120.72 23.499c-4.887 0-8.63-4.004-8.63-8.448 0-4.784 3.821-8.37 8.733-8.37 4.836 0 8.604 3.483 8.604 8.293 0 4.86-3.509 8.526-8.708 8.526zM120.797 11.229c2.262 0 3.821 1.612 3.821 3.665 0 2.496-1.456 4.029-3.846 4.029-2.21 0-3.847-1.664-3.847-3.795 0-2.183 1.533-3.899 3.873-3.899zM141.566 22.953h-4.315l-6.681-15.961h5.407l3.483 9.332 3.275-9.332h5.094l-6.265 15.961zM154.589 6.992h-4.835v15.961h4.835v-15.961zM157.19 15.051c0 4.444 3.743 8.448 8.63 8.448 5.199 0 8.708-3.666 8.708-8.527 0-4.809-3.769-8.293-8.604-8.293-4.912 0-8.733 3.588-8.733 8.371zM169.718 14.895c0-2.053-1.56-3.665-3.821-3.665-2.34 0-3.873 1.716-3.873 3.899 0 2.131 1.637 3.794 3.847 3.794 2.391 0 3.846-1.533 3.846-4.028z"></path>
      <path fill="#edb91b" style="fill: var(--color2, #edb91b)" d="M179.258 17.196c1.647 0.010 2.98 1.343 2.989 2.989v0.001c-0.010 1.647-1.342 2.979-2.988 2.989h-0.001c-1.647-0.009-2.98-1.342-2.99-2.989v-0.001c0.009-1.647 1.342-2.98 2.989-2.99h0.001z"></path>
      <path fill="#edb91b" style="fill: var(--color2, #edb91b)" d="M26.063 24.522c-0.925 1.541-3.158 1.541-4.082 0l-12.892-21.485h25.66c1.85 0 2.992 2.019 2.041 3.605l-10.726 17.88z"></path>
      <path fill="#fff" style="fill: var(--color1, #fff)" d="M12.891 24.522c0.923 1.541 3.157 1.541 4.082 0l12.89-21.485h-25.659c-1.851 0-2.993 2.019-2.042 3.605l10.727 17.88z"></path>
      <path fill="#eef0e7" style="fill: var(--color3, #eef0e7)" d="M9.089 3.037h20.775l-10.386 17.313-10.39-17.313z"></path>
    </symbol>
    <symbol id="menu" viewBox="0 0 32 32">
      <path fill="#f5f6f7" style="fill:var(--color4, #f5f6f7)" d="M16 32c8.837 0 16-7.163 16-16S24.837 0 16 0 0 7.163 0 16s7.163 16 16 16z"/>
      <path style="fill:var(--color5, #000)" d="M8.8 11.2v1.44h14.4V11.2H8.8zm0 4.32v1.44h14.4v-1.44H8.8zm0 5.76v-1.44h14.4v1.44H8.8z"/>
    </symbol>
   
    
    <symbol id="Get-in-touch" viewBox="0 0 258 32">
      <path fill="#ffd723" style="fill:var(--color2, #ffd723)" d="M11.755 16.653c0-.347-.143-.673-.388-.918L2.224 6.592a1.297 1.297 0 0 0-.918-.388C.592 6.204 0 6.796 0 7.51v18.286c0 .714.592 1.306 1.306 1.306.347 0 .673-.143.918-.388l9.143-9.143c.245-.245.388-.571.388-.918zm40.126-4.493a4.551 4.551 0 0 0-2.011-1.938c-.853-.463-1.865-.695-3.035-.695-2.024 0-3.645.67-4.864 2.011-1.219 1.317-1.829 3.084-1.829 5.303 0 2.365.634 4.218 1.902 5.559 1.292 1.317 3.06 1.975 5.303 1.975 1.536 0 2.828-.39 3.877-1.17 1.073-.78 1.853-1.902 2.341-3.365h-7.936v-4.608h13.605v5.815c-.463 1.56-1.256 3.011-2.377 4.352-1.097 1.341-2.499 2.426-4.206 3.255s-3.633 1.243-5.778 1.243c-2.536 0-4.803-.549-6.802-1.646a12.15 12.15 0 0 1-4.645-4.645c-1.097-1.975-1.646-4.23-1.646-6.766s.549-4.791 1.646-6.766c1.122-1.999 2.67-3.547 4.645-4.645 1.975-1.122 4.23-1.682 6.766-1.682 3.072 0 5.656.744 7.753 2.231 2.121 1.487 3.523 3.547 4.206 6.181h-6.912zm30.052 7.022c0 .585-.037 1.195-.11 1.829H67.67c.098 1.268.5 2.243 1.207 2.926.731.658 1.621.987 2.67.987 1.56 0 2.645-.658 3.255-1.975h6.656a9.015 9.015 0 0 1-1.865 3.621c-.878 1.073-1.987 1.914-3.328 2.523s-2.84.914-4.498.914c-1.999 0-3.779-.427-5.339-1.28s-2.779-2.072-3.657-3.657c-.878-1.585-1.317-3.438-1.317-5.559s.427-3.974 1.28-5.559c.878-1.585 2.097-2.804 3.657-3.657s3.352-1.28 5.376-1.28c1.975 0 3.73.414 5.266 1.243s2.731 2.011 3.584 3.547c.878 1.536 1.317 3.328 1.317 5.376zm-6.4-1.646c0-1.073-.366-1.926-1.097-2.56s-1.646-.951-2.743-.951c-1.048 0-1.938.305-2.67.914-.707.61-1.146 1.475-1.317 2.597h7.826zm21.073 6.875v5.303h-3.182c-2.267 0-4.035-.549-5.303-1.646-1.268-1.122-1.902-2.938-1.902-5.449V14.5h-2.487V9.307h2.487V4.333h6.254v4.974h4.096V14.5h-4.096v8.192c0 .61.146 1.048.439 1.317s.78.402 1.463.402h2.231zm14.378-17.225c-1.097 0-1.999-.317-2.706-.951a3.223 3.223 0 0 1-1.024-2.414c0-.975.341-1.78 1.024-2.414.707-.658 1.609-.987 2.706-.987 1.073 0 1.95.329 2.633.987.707.634 1.061 1.438 1.061 2.414 0 .951-.354 1.755-1.061 2.414-.683.634-1.56.951-2.633.951zm3.109 2.121v20.407h-6.254V9.307h6.254zm16.966-.219c2.389 0 4.291.78 5.705 2.341 1.438 1.536 2.158 3.657 2.158 6.363v11.922h-6.217V18.633c0-1.365-.354-2.426-1.061-3.182s-1.658-1.134-2.853-1.134c-1.195 0-2.146.378-2.853 1.134s-1.061 1.816-1.061 3.182v11.081h-6.254V9.307h6.254v2.706c.634-.902 1.487-1.609 2.56-2.121 1.073-.536 2.28-.805 3.621-.805zm31.332 15.323v5.303h-3.182c-2.267 0-4.035-.549-5.303-1.646-1.268-1.122-1.902-2.938-1.902-5.449V14.5h-2.487V9.307h2.487V4.333h6.254v4.974h4.096V14.5h-4.096v8.192c0 .61.146 1.048.439 1.317s.78.402 1.463.402h2.231zm12.773 5.596c-1.999 0-3.803-.427-5.413-1.28-1.585-.853-2.84-2.072-3.767-3.657-.902-1.585-1.353-3.438-1.353-5.559 0-2.097.463-3.938 1.39-5.522.927-1.609 2.194-2.84 3.803-3.694s3.413-1.28 5.413-1.28c1.999 0 3.803.427 5.413 1.28s2.877 2.085 3.803 3.694c.927 1.585 1.39 3.426 1.39 5.522s-.475 3.95-1.426 5.559a9.395 9.395 0 0 1-3.84 3.657c-1.609.853-3.413 1.28-5.413 1.28zm0-5.413c1.195 0 2.207-.439 3.035-1.317.853-.878 1.28-2.133 1.28-3.767s-.414-2.889-1.243-3.767c-.805-.878-1.804-1.317-2.999-1.317-1.219 0-2.231.439-3.035 1.317-.805.853-1.207 2.109-1.207 3.767 0 1.634.39 2.889 1.17 3.767.805.878 1.804 1.317 2.999 1.317zm34.147-15.287v20.407h-6.254v-2.779c-.634.902-1.499 1.634-2.597 2.194-1.073.536-2.267.805-3.584.805-1.56 0-2.938-.341-4.133-1.024-1.195-.707-2.121-1.719-2.779-3.035s-.987-2.865-.987-4.645V9.308h6.217v11.081c0 1.365.354 2.426 1.061 3.182s1.658 1.134 2.853 1.134c1.219 0 2.182-.378 2.889-1.134s1.061-1.816 1.061-3.182V9.308h6.254zm3.249 10.204c0-2.121.427-3.974 1.28-5.559.878-1.585 2.085-2.804 3.621-3.657 1.56-.853 3.34-1.28 5.339-1.28 2.56 0 4.693.67 6.4 2.011 1.73 1.341 2.864 3.23 3.401 5.669h-6.656c-.561-1.56-1.646-2.341-3.255-2.341-1.146 0-2.06.451-2.743 1.353-.683.878-1.024 2.146-1.024 3.803s.341 2.938 1.024 3.84c.683.878 1.597 1.317 2.743 1.317 1.609 0 2.694-.78 3.255-2.341h6.656c-.537 2.389-1.671 4.267-3.401 5.632-1.731 1.365-3.865 2.048-6.4 2.048-1.999 0-3.779-.427-5.339-1.28-1.536-.853-2.743-2.072-3.621-3.657-.853-1.585-1.28-3.438-1.28-5.559zm35.929-10.423c2.341 0 4.219.78 5.632 2.341 1.415 1.536 2.121 3.657 2.121 6.363v11.922h-6.217V18.633c0-1.365-.352-2.426-1.061-3.182-.706-.756-1.657-1.134-2.853-1.134-1.193 0-2.144.378-2.853 1.134-.706.756-1.061 1.816-1.061 3.182v11.081h-6.254V2.651h6.254v9.399c.635-.902 1.499-1.621 2.597-2.158s2.329-.805 3.694-.805z"/>
    </symbol>
    <symbol id="LETS-GET-STARTED" viewBox="0 0 370 32">
      <path fill="#d4d6d4" style="fill:var(--color6, #d4d6d4)" d="M11.755 16.653c0-.347-.143-.673-.388-.918L2.224 6.592a1.297 1.297 0 0 0-.918-.388C.592 6.204 0 6.796 0 7.51v18.286c0 .714.592 1.306 1.306 1.306.347 0 .673-.143.918-.388l9.143-9.143c.245-.245.388-.571.388-.918zm29.338 8.234h8.192v4.827H34.839V4.041h6.254v20.846zM58.521 9.051v5.193h8.375v4.827h-8.375v5.632h9.472v5.01H52.267V4.04h15.726v5.01h-9.472zm32.001-5.01v5.01H83.72v20.663h-6.254V9.051h-6.802v-5.01h19.858zm7.49-3.584-.475 8.082h-4.206L92.856.457h5.157zm13.009 29.513c-1.877 0-3.56-.305-5.047-.914s-2.682-1.512-3.584-2.706c-.878-1.195-1.341-2.633-1.39-4.315h6.656c.098.951.427 1.682.987 2.194.561.488 1.292.731 2.194.731.927 0 1.658-.207 2.194-.622.536-.439.805-1.036.805-1.792 0-.634-.219-1.158-.658-1.573-.414-.414-.939-.756-1.573-1.024-.609-.268-1.487-.573-2.633-.914-1.658-.512-3.011-1.024-4.059-1.536s-1.95-1.268-2.706-2.267c-.756-1-1.134-2.304-1.134-3.913 0-2.389.866-4.254 2.597-5.595 1.731-1.365 3.986-2.048 6.766-2.048 2.828 0 5.108.683 6.839 2.048 1.731 1.341 2.658 3.218 2.779 5.632h-6.766c-.049-.829-.353-1.475-.914-1.938-.561-.488-1.28-.731-2.158-.731-.756 0-1.365.207-1.829.622-.463.39-.695.963-.695 1.719 0 .829.39 1.475 1.17 1.938s1.999.963 3.657 1.499c1.658.561 2.999 1.097 4.023 1.609 1.048.512 1.951 1.256 2.706 2.231s1.134 2.231 1.134 3.767c0 1.463-.378 2.792-1.134 3.986-.731 1.195-1.804 2.146-3.218 2.853s-3.084 1.061-5.01 1.061zm38.003-17.81a4.551 4.551 0 0 0-2.011-1.938c-.853-.463-1.865-.695-3.035-.695-2.024 0-3.645.67-4.864 2.011-1.219 1.317-1.829 3.084-1.829 5.303 0 2.365.634 4.218 1.902 5.559 1.292 1.317 3.06 1.975 5.303 1.975 1.536 0 2.828-.39 3.877-1.17 1.073-.78 1.853-1.902 2.341-3.365h-7.936v-4.608h13.605v5.815c-.463 1.56-1.256 3.011-2.377 4.352-1.097 1.341-2.499 2.426-4.206 3.255s-3.633 1.243-5.778 1.243c-2.536 0-4.803-.549-6.802-1.646a12.15 12.15 0 0 1-4.645-4.645c-1.097-1.975-1.646-4.23-1.646-6.766s.549-4.791 1.646-6.766c1.122-1.999 2.67-3.547 4.645-4.645 1.975-1.122 4.23-1.682 6.766-1.682 3.072 0 5.656.744 7.753 2.231 2.121 1.487 3.523 3.547 4.206 6.181h-6.912zm17.069-3.109v5.193h8.375v4.827h-8.375v5.632h9.472v5.01h-15.726V4.04h15.726v5.01h-9.472zm32-5.01v5.01h-6.802v20.663h-6.254V9.051h-6.802v-5.01h19.858zm20.178 25.929c-1.877 0-3.56-.305-5.047-.914s-2.682-1.512-3.584-2.706c-.878-1.195-1.341-2.633-1.39-4.315h6.656c.098.951.427 1.682.987 2.194.561.488 1.292.731 2.194.731.926 0 1.658-.207 2.194-.622.536-.439.805-1.036.805-1.792 0-.634-.219-1.158-.658-1.573-.414-.414-.939-.756-1.573-1.024-.61-.268-1.487-.573-2.633-.914-1.658-.512-3.011-1.024-4.059-1.536s-1.95-1.268-2.706-2.267c-.756-1-1.134-2.304-1.134-3.913 0-2.389.866-4.254 2.597-5.595 1.731-1.365 3.986-2.048 6.766-2.048 2.828 0 5.108.683 6.839 2.048 1.731 1.341 2.658 3.218 2.779 5.632h-6.766c-.049-.829-.354-1.475-.914-1.938-.561-.488-1.28-.731-2.158-.731-.756 0-1.365.207-1.829.622-.463.39-.695.963-.695 1.719 0 .829.39 1.475 1.17 1.938s1.999.963 3.657 1.499c1.658.561 2.999 1.097 4.023 1.609 1.048.512 1.95 1.256 2.706 2.231s1.134 2.231 1.134 3.767c0 1.463-.378 2.792-1.134 3.986-.731 1.195-1.804 2.146-3.218 2.853s-3.084 1.061-5.01 1.061zM249.95 4.041v5.01h-6.802v20.663h-6.254V9.051h-6.802v-5.01h19.858zm19.12 21.138h-9.582l-1.536 4.535h-6.546l9.289-25.673h7.241l9.289 25.673h-6.619l-1.536-4.535zm-1.609-4.827-3.182-9.399-3.145 9.399h6.327zm25.684 9.362-5.339-9.691h-1.499v9.691h-6.254V4.041h10.496c2.025 0 3.744.354 5.157 1.061 1.44.707 2.512 1.682 3.218 2.926.709 1.219 1.061 2.584 1.061 4.096 0 1.707-.487 3.23-1.463 4.571-.951 1.341-2.363 2.292-4.242 2.853l5.925 10.167h-7.058zm-6.839-14.116h3.877c1.147 0 2-.28 2.56-.841.585-.561.878-1.353.878-2.377 0-.975-.293-1.743-.878-2.304-.56-.561-1.413-.841-2.56-.841h-3.877v6.363zm36.073-11.557v5.01h-6.802v20.663h-6.254V9.051h-6.802v-5.01h19.858zm9.392 5.01v5.193h8.375v4.827h-8.375v5.632h9.472v5.01h-15.726V4.04h15.726v5.01h-9.472zm23.15-5.01c2.706 0 5.072.536 7.095 1.609s3.584 2.584 4.681 4.535c1.122 1.926 1.682 4.157 1.682 6.693 0 2.511-.56 4.742-1.682 6.693-1.097 1.95-2.67 3.462-4.718 4.535-2.023 1.073-4.377 1.609-7.058 1.609h-9.618V4.042h9.618zm-.402 20.261c2.366 0 4.206-.646 5.522-1.938s1.975-3.121 1.975-5.486-.658-4.206-1.975-5.522c-1.317-1.317-3.157-1.975-5.522-1.975h-2.962v14.921h2.962z"/>
    </symbol>
    <symbol id="More-know-About-us" viewBox="0 0 443 32">
      <path fill="#d4d6d4" style="fill:var(--color6, #d4d6d4)" d="M12.659 15.473c0-.374-.154-.725-.418-.989L2.395 4.638a1.397 1.397 0 0 0-.989-.418c-.769 0-1.407.637-1.407 1.407v19.692c0 .769.637 1.407 1.407 1.407a1.4 1.4 0 0 0 .989-.417l9.846-9.846c.264-.264.418-.615.418-.989zM68.83 1.89v27.648h-6.735V12.957l-6.183 16.581h-5.435l-6.223-16.62v16.62h-6.735V1.89h7.956l7.759 19.141 7.68-19.141h7.916zm14.846 27.964c-2.153 0-4.096-.46-5.829-1.378-1.707-.919-3.059-2.232-4.057-3.938-.972-1.707-1.457-3.702-1.457-5.986 0-2.258.499-4.24 1.497-5.947.998-1.733 2.363-3.059 4.096-3.978s3.676-1.378 5.829-1.378c2.153 0 4.096.46 5.829 1.378s3.098 2.245 4.096 3.978c.998 1.707 1.497 3.689 1.497 5.947s-.512 4.254-1.536 5.986a10.12 10.12 0 0 1-4.135 3.938c-1.733.919-3.676 1.378-5.829 1.378zm0-5.829c1.287 0 2.376-.473 3.269-1.418.919-.945 1.378-2.297 1.378-4.057s-.446-3.111-1.339-4.057c-.866-.945-1.943-1.418-3.23-1.418-1.313 0-2.402.473-3.269 1.418-.866.919-1.3 2.271-1.3 4.057 0 1.759.42 3.111 1.26 4.057.866.945 1.943 1.418 3.23 1.418zm21.808-12.8c.788-1.208 1.772-2.153 2.954-2.836 1.182-.709 2.494-1.063 3.938-1.063v7.129h-1.851c-1.68 0-2.941.368-3.781 1.103-.84.709-1.26 1.969-1.26 3.781V29.54h-6.735V7.563h6.735v3.663zm30.828 6.971c0 .63-.039 1.287-.118 1.969h-15.242c.105 1.365.538 2.416 1.3 3.151.788.709 1.746 1.063 2.875 1.063 1.68 0 2.849-.709 3.505-2.127h7.168a9.707 9.707 0 0 1-2.009 3.899c-.945 1.155-2.14 2.061-3.584 2.718s-3.059.985-4.844.985c-2.153 0-4.07-.46-5.75-1.378s-2.993-2.232-3.938-3.938c-.945-1.707-1.418-3.702-1.418-5.986s.459-4.28 1.378-5.986c.945-1.707 2.258-3.02 3.938-3.938s3.61-1.378 5.79-1.378c2.127 0 4.017.446 5.671 1.339s2.941 2.166 3.86 3.82c.945 1.654 1.418 3.584 1.418 5.79zm-6.892-1.773c0-1.155-.394-2.074-1.182-2.757s-1.772-1.024-2.954-1.024c-1.129 0-2.087.328-2.875.985-.762.656-1.234 1.588-1.418 2.796h8.428zm32.221 13.115-6.695-9.216v9.216h-6.735V.393h6.735v16.108l6.656-8.94h8.31l-9.137 11.028 9.216 10.949h-8.35zm24.307-22.212c2.573 0 4.621.84 6.144 2.521 1.549 1.654 2.324 3.938 2.324 6.853v12.839h-6.695V17.605c0-1.47-.381-2.613-1.142-3.426s-1.786-1.221-3.072-1.221c-1.287 0-2.311.407-3.072 1.221s-1.142 1.956-1.142 3.426v11.934h-6.735V7.562h6.735v2.914c.683-.972 1.601-1.733 2.757-2.284 1.155-.578 2.455-.866 3.899-.866zm23.151 22.528c-2.153 0-4.096-.46-5.829-1.378-1.707-.919-3.059-2.232-4.057-3.938-.971-1.707-1.457-3.702-1.457-5.986 0-2.258.499-4.24 1.497-5.947.998-1.733 2.363-3.059 4.096-3.978s3.676-1.378 5.829-1.378c2.153 0 4.096.46 5.829 1.378s3.098 2.245 4.096 3.978c.998 1.707 1.497 3.689 1.497 5.947s-.512 4.254-1.536 5.986a10.12 10.12 0 0 1-4.135 3.938c-1.733.919-3.676 1.378-5.829 1.378zm0-5.829c1.287 0 2.376-.473 3.269-1.418.919-.945 1.378-2.297 1.378-4.057s-.446-3.111-1.339-4.057c-.866-.945-1.943-1.418-3.23-1.418-1.313 0-2.402.473-3.269 1.418-.866.919-1.3 2.271-1.3 4.057 0 1.759.42 3.111 1.26 4.057.866.945 1.943 1.418 3.23 1.418zm46.62-16.463-5.947 21.977h-7.443l-3.466-14.257-3.584 14.257h-7.404l-5.986-21.977h6.735l3.111 15.714 3.702-15.714h7.129l3.741 15.636 3.072-15.636h6.341zm28.126 17.093h-10.319l-1.654 4.884h-7.05l10.004-27.648h7.798l10.004 27.648h-7.129l-1.654-4.884zm-1.733-5.199-3.426-10.122-3.387 10.122h6.814zm20.295-8.783c.63-1.024 1.536-1.851 2.718-2.481s2.533-.945 4.057-.945c1.812 0 3.454.46 4.923 1.378s2.626 2.232 3.466 3.938c.866 1.707 1.3 3.689 1.3 5.947s-.433 4.254-1.3 5.986c-.839 1.707-1.996 3.033-3.466 3.978-1.47.919-3.111 1.378-4.923 1.378-1.548 0-2.902-.302-4.057-.906-1.154-.63-2.06-1.457-2.718-2.481v3.072h-6.735V.392h6.735v10.279zm9.61 7.838c0-1.68-.473-2.993-1.418-3.938-.918-.972-2.06-1.457-3.426-1.457-1.339 0-2.481.486-3.426 1.457-.918.972-1.378 2.297-1.378 3.978s.46 3.006 1.378 3.978c.945.971 2.087 1.457 3.426 1.457s2.481-.486 3.426-1.457c.945-.998 1.418-2.337 1.418-4.017zm20.389 11.343c-2.151 0-4.096-.46-5.829-1.378-1.706-.919-3.057-2.232-4.057-3.938-.97-1.707-1.457-3.702-1.457-5.986 0-2.258.5-4.24 1.497-5.947.999-1.733 2.363-3.059 4.096-3.978s3.678-1.378 5.829-1.378c2.154 0 4.096.46 5.829 1.378s3.099 2.245 4.096 3.978c.999 1.707 1.497 3.689 1.497 5.947s-.512 4.254-1.536 5.986a10.108 10.108 0 0 1-4.135 3.938c-1.733.919-3.675 1.378-5.829 1.378zm0-5.829c1.287 0 2.378-.473 3.269-1.418.921-.945 1.378-2.297 1.378-4.057s-.446-3.111-1.339-4.057c-.866-.945-1.942-1.418-3.23-1.418-1.312 0-2.402.473-3.269 1.418-.866.919-1.3 2.271-1.3 4.057 0 1.759.421 3.111 1.26 4.057.866.945 1.945 1.418 3.23 1.418zm36.776-16.463v21.977h-6.735v-2.993c-.682.972-1.615 1.759-2.796 2.363-1.154.578-2.442.866-3.86.866-1.681 0-3.163-.367-4.45-1.103-1.287-.761-2.284-1.851-2.993-3.269s-1.063-3.085-1.063-5.002V7.562h6.695v11.934c0 1.47.382 2.613 1.142 3.426s1.785 1.221 3.072 1.221c1.312 0 2.351-.407 3.111-1.221s1.142-1.956 1.142-3.426V7.562h6.735zm17.085 16.266v5.711h-3.426c-2.442 0-4.345-.591-5.711-1.772-1.366-1.208-2.048-3.164-2.048-5.868v-8.743h-2.678V7.563h2.678V2.207h6.735v5.356h4.411v5.593h-4.411v8.822c0 .656.158 1.129.473 1.418s.839.433 1.575.433h2.402zm33.799-16.266v21.977h-6.735v-2.993c-.684.972-1.615 1.759-2.796 2.363-1.157.578-2.442.866-3.86.866-1.681 0-3.166-.367-4.45-1.103-1.287-.761-2.284-1.851-2.993-3.269s-1.063-3.085-1.063-5.002V7.562h6.695v11.934c0 1.47.379 2.613 1.142 3.426.761.814 1.785 1.221 3.072 1.221 1.312 0 2.348-.407 3.111-1.221.761-.814 1.142-1.956 1.142-3.426V7.562h6.735zm13.778 22.292c-1.918 0-3.623-.328-5.12-.985s-2.678-1.549-3.545-2.678a7.209 7.209 0 0 1-1.457-3.86h6.656c.079.761.433 1.378 1.063 1.851s1.406.709 2.324.709c.839 0 1.484-.158 1.93-.473.473-.341.709-.775.709-1.3 0-.63-.327-1.09-.985-1.378-.657-.315-1.721-.656-3.19-1.024-1.575-.368-2.887-.748-3.938-1.142a7.058 7.058 0 0 1-2.718-1.93c-.761-.893-1.142-2.087-1.142-3.584 0-1.26.342-2.402 1.024-3.426.709-1.05 1.733-1.877 3.072-2.481 1.366-.604 2.981-.906 4.844-.906 2.757 0 4.923.683 6.498 2.048 1.602 1.365 2.521 3.177 2.757 5.435h-6.223c-.106-.761-.446-1.365-1.024-1.812-.551-.446-1.287-.67-2.206-.67-.788 0-1.391.158-1.812.473-.421.289-.63.696-.63 1.221 0 .63.327 1.103.985 1.418.682.315 1.733.63 3.151.945 1.627.42 2.954.84 3.978 1.26 1.024.394 1.918 1.05 2.678 1.969.788.893 1.194 2.101 1.221 3.623 0 1.287-.367 2.442-1.103 3.466-.709.998-1.745 1.785-3.111 2.363-1.339.578-2.902.866-4.687.866z"/>
    </symbol>
    <symbol id="Read-More" viewBox="0 0 249 32">
      <path d="M12.659 15.473c0-.374-.154-.725-.418-.989L2.395 4.638a1.397 1.397 0 0 0-.989-.418c-.769 0-1.407.637-1.407 1.407v19.692c0 .769.637 1.407 1.407 1.407a1.4 1.4 0 0 0 .989-.417l9.846-9.846c.264-.264.418-.615.418-.989zm38.959 14.065-5.75-10.437h-1.615v10.437h-6.735V1.89h11.303c2.179 0 4.03.381 5.553 1.142 1.549.761 2.705 1.812 3.466 3.151.761 1.313 1.142 2.783 1.142 4.411 0 1.838-.525 3.479-1.575 4.923-1.024 1.444-2.547 2.468-4.569 3.072l6.38 10.949h-7.601zm-7.364-15.202h4.175c1.234 0 2.153-.302 2.757-.906.63-.604.945-1.457.945-2.56 0-1.05-.315-1.877-.945-2.481-.604-.604-1.523-.906-2.757-.906h-4.175v6.853zm39.673 3.86c0 .63-.039 1.287-.118 1.969H68.567c.105 1.365.538 2.416 1.3 3.151.788.709 1.746 1.063 2.875 1.063 1.68 0 2.849-.709 3.505-2.127h7.168a9.707 9.707 0 0 1-2.009 3.899c-.945 1.155-2.14 2.061-3.584 2.718s-3.059.985-4.844.985c-2.153 0-4.07-.46-5.75-1.378s-2.993-2.232-3.938-3.938c-.945-1.707-1.418-3.702-1.418-5.986s.46-4.28 1.378-5.986c.945-1.707 2.258-3.02 3.938-3.938s3.61-1.378 5.79-1.378c2.127 0 4.017.446 5.671 1.339s2.941 2.166 3.86 3.82c.945 1.654 1.418 3.584 1.418 5.79zm-6.892-1.773c0-1.155-.394-2.074-1.182-2.757s-1.772-1.024-2.954-1.024c-1.129 0-2.087.328-2.875.985-.761.656-1.234 1.588-1.418 2.796h8.428zm9.106 2.088c0-2.258.42-4.24 1.26-5.947.866-1.707 2.035-3.02 3.505-3.938s3.111-1.378 4.923-1.378c1.549 0 2.901.315 4.057.945 1.182.63 2.087 1.457 2.718 2.481V7.563h6.735V29.54h-6.735v-3.111c-.656 1.024-1.575 1.851-2.757 2.481-1.155.63-2.508.945-4.057.945-1.786 0-3.413-.46-4.884-1.378-1.471-.945-2.639-2.271-3.505-3.978-.84-1.733-1.26-3.728-1.26-5.986zm16.463.039c0-1.68-.473-3.006-1.418-3.978-.919-.972-2.048-1.457-3.387-1.457s-2.481.486-3.426 1.457c-.919.945-1.378 2.258-1.378 3.938s.459 3.02 1.378 4.017c.945.971 2.087 1.457 3.426 1.457s2.468-.486 3.387-1.457c.945-.971 1.418-2.297 1.418-3.978zm10.268-.039c0-2.258.42-4.24 1.26-5.947.866-1.707 2.035-3.02 3.505-3.938s3.111-1.378 4.923-1.378c1.444 0 2.757.302 3.938.906 1.208.604 2.153 1.418 2.836 2.442V.395h6.735V29.54h-6.735v-3.151c-.63 1.05-1.536 1.89-2.718 2.521-1.155.63-2.508.945-4.057.945-1.812 0-3.453-.46-4.923-1.378-1.471-.945-2.639-2.271-3.505-3.978-.84-1.733-1.26-3.728-1.26-5.986zm16.463.039c0-1.68-.473-3.006-1.418-3.978-.919-.972-2.048-1.457-3.387-1.457s-2.481.486-3.426 1.457c-.919.945-1.378 2.258-1.378 3.938s.459 3.02 1.378 4.017c.945.971 2.087 1.457 3.426 1.457s2.468-.486 3.387-1.457c.945-.971 1.418-2.297 1.418-3.978zm51.264-16.66v27.648h-6.735V12.957l-6.183 16.581h-5.435l-6.223-16.62v16.62h-6.735V1.89h7.955l7.759 19.141 7.68-19.141h7.916zm14.847 27.964c-2.153 0-4.096-.46-5.829-1.378-1.707-.919-3.059-2.232-4.057-3.938-.972-1.707-1.457-3.702-1.457-5.986 0-2.258.499-4.24 1.496-5.947.998-1.733 2.363-3.059 4.096-3.978s3.676-1.378 5.829-1.378c2.153 0 4.096.46 5.829 1.378s3.098 2.245 4.096 3.978c.998 1.707 1.497 3.689 1.497 5.947s-.512 4.254-1.536 5.986a10.12 10.12 0 0 1-4.135 3.938c-1.733.919-3.676 1.378-5.829 1.378zm0-5.829c1.286 0 2.376-.473 3.269-1.418.919-.945 1.378-2.297 1.378-4.057s-.447-3.111-1.339-4.057c-.866-.945-1.943-1.418-3.23-1.418-1.313 0-2.402.473-3.269 1.418-.866.919-1.3 2.271-1.3 4.057 0 1.759.42 3.111 1.26 4.057.866.945 1.943 1.418 3.23 1.418zm21.808-12.8c.788-1.208 1.772-2.153 2.954-2.836 1.182-.709 2.494-1.063 3.938-1.063v7.129h-1.851c-1.68 0-2.941.368-3.781 1.103-.84.709-1.26 1.969-1.26 3.781V29.54h-6.735V7.563h6.735v3.663zm30.827 6.971c0 .63-.039 1.287-.118 1.969h-15.242c.105 1.365.538 2.416 1.3 3.151.788.709 1.746 1.063 2.875 1.063 1.68 0 2.849-.709 3.505-2.127h7.168a9.682 9.682 0 0 1-2.009 3.899c-.945 1.155-2.14 2.061-3.584 2.718s-3.059.985-4.844.985c-2.153 0-4.07-.46-5.75-1.378s-2.993-2.232-3.938-3.938c-.945-1.707-1.418-3.702-1.418-5.986s.46-4.28 1.378-5.986c.945-1.707 2.258-3.02 3.938-3.938s3.61-1.378 5.79-1.378c2.127 0 4.017.446 5.671 1.339s2.941 2.166 3.86 3.82c.945 1.654 1.418 3.584 1.418 5.79zm-6.892-1.773c0-1.155-.394-2.074-1.182-2.757s-1.772-1.024-2.954-1.024c-1.129 0-2.087.328-2.875.985-.761.656-1.234 1.588-1.418 2.796h8.428z"/>
    </symbol>
    <symbol id="See-Case-Study" viewBox="0 0 264 32">
      <path fill="#d4d6d4" style="fill:var(--color6, #d4d6d4)" d="M9.681 11.832a1.07 1.07 0 0 0-.319-.756L1.833 3.547a1.069 1.069 0 0 0-.756-.319c-.588 0-1.076.487-1.076 1.076v15.059c0 .588.487 1.076 1.076 1.076.286 0 .555-.118.756-.319l7.529-7.529c.202-.202.319-.471.319-.756zm26.66 10.967c-1.546 0-2.931-.251-4.156-.753s-2.209-1.245-2.952-2.229c-.723-.984-1.104-2.168-1.144-3.554h5.481c.08.783.351 1.385.813 1.807.462.402 1.064.602 1.807.602.763 0 1.365-.171 1.807-.512.442-.361.663-.853.663-1.476 0-.522-.181-.954-.542-1.295-.341-.341-.773-.622-1.295-.843-.502-.221-1.225-.472-2.168-.753-1.365-.422-2.48-.843-3.343-1.265s-1.606-1.044-2.229-1.867c-.622-.823-.934-1.897-.934-3.223 0-1.968.713-3.504 2.138-4.608 1.425-1.124 3.283-1.687 5.572-1.687 2.329 0 4.206.562 5.632 1.687 1.425 1.104 2.189 2.65 2.289 4.638h-5.572c-.04-.683-.291-1.215-.753-1.596-.462-.402-1.054-.602-1.777-.602-.623 0-1.124.171-1.506.512-.382.321-.572.793-.572 1.416 0 .683.321 1.215.964 1.596s1.647.793 3.012 1.235c1.365.462 2.47.904 3.313 1.325.863.422 1.606 1.034 2.229 1.837s.934 1.837.934 3.102c0 1.205-.311 2.299-.934 3.283-.602.984-1.486 1.767-2.65 2.349s-2.54.873-4.126.873zm26.721-8.885c0 .482-.03.984-.09 1.506H51.316c.08 1.044.411 1.847.994 2.409.602.542 1.335.813 2.199.813 1.285 0 2.178-.542 2.68-1.626h5.481a7.429 7.429 0 0 1-1.536 2.982c-.723.883-1.637 1.576-2.741 2.078s-2.339.753-3.704.753c-1.647 0-3.112-.351-4.397-1.054s-2.289-1.707-3.012-3.012c-.723-1.305-1.084-2.831-1.084-4.578s.351-3.273 1.054-4.578c.723-1.305 1.727-2.309 3.012-3.012s2.761-1.054 4.427-1.054c1.626 0 3.072.341 4.337 1.024s2.249 1.656 2.952 2.921c.723 1.265 1.084 2.741 1.084 4.427zm-5.27-1.355c0-.883-.301-1.586-.904-2.108s-1.355-.783-2.259-.783c-.863 0-1.596.251-2.199.753-.582.502-.944 1.215-1.084 2.138h6.445zm23.829 1.355c0 .482-.03.984-.09 1.506H69.875c.08 1.044.412 1.847.994 2.409.602.542 1.335.813 2.199.813 1.285 0 2.179-.542 2.68-1.626h5.481a7.429 7.429 0 0 1-1.536 2.982c-.723.883-1.636 1.576-2.741 2.078s-2.339.753-3.704.753c-1.646 0-3.112-.351-4.397-1.054s-2.289-1.707-3.012-3.012c-.723-1.305-1.084-2.831-1.084-4.578s.351-3.273 1.054-4.578c.723-1.305 1.727-2.309 3.012-3.012s2.761-1.054 4.427-1.054c1.626 0 3.072.341 4.337 1.024s2.249 1.656 2.952 2.921c.723 1.265 1.084 2.741 1.084 4.427zm-5.271-1.355c0-.883-.301-1.586-.904-2.108s-1.355-.783-2.259-.783c-.863 0-1.596.251-2.199.753-.582.502-.944 1.215-1.084 2.138h6.445zm13.497-.572c0-2.088.452-3.945 1.355-5.572.904-1.646 2.159-2.921 3.765-3.825 1.626-.924 3.464-1.385 5.512-1.385 2.51 0 4.658.663 6.445 1.988s2.982 3.132 3.584 5.421h-5.662c-.422-.883-1.024-1.556-1.807-2.018-.763-.462-1.636-.693-2.62-.693-1.586 0-2.871.552-3.855 1.656s-1.476 2.58-1.476 4.427.492 3.323 1.476 4.427c.984 1.104 2.269 1.656 3.855 1.656.984 0 1.857-.231 2.62-.693.783-.462 1.385-1.134 1.807-2.018h5.662c-.602 2.289-1.797 4.096-3.584 5.421-1.787 1.305-3.935 1.958-6.445 1.958-2.048 0-3.885-.452-5.512-1.355-1.606-.924-2.861-2.199-3.765-3.825s-1.355-3.484-1.355-5.572zm22.79 2.168c0-1.727.321-3.243.964-4.548.663-1.305 1.556-2.309 2.68-3.012s2.379-1.054 3.765-1.054c1.185 0 2.219.241 3.102.723.904.482 1.596 1.114 2.078 1.897V5.782h5.15v16.806h-5.15v-2.379c-.502.783-1.205 1.416-2.108 1.897-.883.482-1.917.723-3.102.723-1.365 0-2.61-.351-3.735-1.054-1.124-.723-2.018-1.737-2.68-3.042-.642-1.325-.964-2.851-.964-4.578zm12.59.03c0-1.285-.361-2.299-1.084-3.042-.703-.743-1.566-1.114-2.59-1.114s-1.897.371-2.62 1.114c-.703.723-1.054 1.727-1.054 3.012s.351 2.309 1.054 3.072c.723.743 1.596 1.114 2.62 1.114s1.887-.371 2.59-1.114c.723-.743 1.084-1.757 1.084-3.042zm15.712 8.644c-1.466 0-2.771-.251-3.915-.753s-2.048-1.185-2.711-2.048a5.496 5.496 0 0 1-1.114-2.952h5.09c.06.582.331 1.054.813 1.416s1.074.542 1.777.542c.642 0 1.135-.12 1.476-.361.361-.261.542-.592.542-.994 0-.482-.251-.833-.753-1.054-.502-.241-1.315-.502-2.44-.783-1.205-.281-2.209-.572-3.012-.873a5.4 5.4 0 0 1-2.078-1.476c-.582-.683-.873-1.596-.873-2.741 0-.964.261-1.837.783-2.62.542-.803 1.325-1.436 2.349-1.897 1.044-.462 2.279-.693 3.704-.693 2.108 0 3.765.522 4.969 1.566 1.225 1.044 1.928 2.43 2.108 4.156h-4.759c-.08-.582-.341-1.044-.783-1.385-.422-.341-.984-.512-1.687-.512-.602 0-1.064.12-1.385.361-.321.221-.482.532-.482.934 0 .482.251.843.753 1.084.522.241 1.325.482 2.409.723 1.245.321 2.259.643 3.042.964.783.301 1.466.803 2.048 1.506.602.683.913 1.606.934 2.771 0 .984-.281 1.867-.843 2.65-.542.763-1.335 1.365-2.379 1.807-1.024.442-2.219.663-3.584.663zm25.8-8.915c0 .482-.03.984-.09 1.506h-11.656c.08 1.044.411 1.847.994 2.409.602.542 1.335.813 2.199.813 1.285 0 2.178-.542 2.68-1.626h5.481a7.429 7.429 0 0 1-1.536 2.982c-.723.883-1.637 1.576-2.741 2.078s-2.339.753-3.704.753c-1.647 0-3.112-.351-4.397-1.054s-2.289-1.707-3.012-3.012c-.723-1.305-1.084-2.831-1.084-4.578s.351-3.273 1.054-4.578c.723-1.305 1.727-2.309 3.012-3.012s2.761-1.054 4.427-1.054c1.626 0 3.072.341 4.337 1.024s2.249 1.656 2.952 2.921c.723 1.265 1.084 2.741 1.084 4.427zm-5.271-1.355c0-.883-.301-1.586-.904-2.108s-1.355-.783-2.259-.783c-.863 0-1.596.251-2.199.753-.582.502-.944 1.215-1.084 2.138h6.445zm22.02 10.24c-1.546 0-2.932-.251-4.156-.753s-2.209-1.245-2.952-2.229c-.723-.984-1.104-2.168-1.144-3.554h5.481c.08.783.351 1.385.813 1.807.462.402 1.064.602 1.807.602.763 0 1.365-.171 1.807-.512.442-.361.663-.853.663-1.476 0-.522-.181-.954-.542-1.295-.341-.341-.773-.622-1.295-.843-.502-.221-1.225-.472-2.168-.753-1.365-.422-2.48-.843-3.343-1.265s-1.606-1.044-2.229-1.867-.934-1.897-.934-3.223c0-1.968.713-3.504 2.138-4.608 1.425-1.124 3.283-1.687 5.572-1.687 2.329 0 4.206.562 5.632 1.687 1.425 1.104 2.189 2.65 2.289 4.638h-5.572c-.04-.683-.291-1.215-.753-1.596-.462-.402-1.054-.602-1.777-.602-.623 0-1.125.171-1.506.512-.382.321-.572.793-.572 1.416 0 .683.321 1.215.964 1.596s1.646.793 3.012 1.235c1.365.462 2.47.904 3.313 1.325.864.422 1.606 1.034 2.229 1.837s.934 1.837.934 3.102c0 1.205-.311 2.299-.934 3.283-.602.984-1.485 1.767-2.651 2.349s-2.54.873-4.126.873zm20.247-4.578v4.367h-2.62c-1.867 0-3.324-.452-4.367-1.355-1.045-.924-1.566-2.419-1.566-4.488v-6.686h-2.048V5.782h2.048V1.686h5.15v4.096h3.373v4.277h-3.373v6.746c0 .502.12.863.361 1.084s.642.331 1.205.331h1.837zm19.463-12.438v16.806h-5.15V20.3c-.523.743-1.235 1.345-2.138 1.807-.885.442-1.867.663-2.952.663-1.286 0-2.421-.281-3.403-.843-.984-.582-1.747-1.416-2.289-2.5s-.813-2.359-.813-3.825V5.784h5.12v9.126c0 1.124.29 1.998.873 2.62.582.622 1.365.934 2.349.934 1.003 0 1.796-.311 2.379-.934.582-.622.873-1.496.873-2.62V5.784h5.15zm2.675 8.372c0-1.727.322-3.243.964-4.548.663-1.305 1.557-2.309 2.68-3.012s2.379-1.054 3.765-1.054c1.105 0 2.108.231 3.012.693.924.462 1.647 1.084 2.168 1.867v-7.8h5.15v22.287h-5.15v-2.409c-.482.803-1.175 1.446-2.078 1.928-.883.482-1.918.723-3.102.723-1.385 0-2.641-.351-3.765-1.054-1.124-.723-2.018-1.737-2.68-3.042-.642-1.325-.964-2.851-.964-4.578zm12.589.03c0-1.285-.361-2.299-1.084-3.042-.702-.743-1.566-1.114-2.59-1.114s-1.897.371-2.62 1.114c-.702.723-1.054 1.727-1.054 3.012s.352 2.309 1.054 3.072c.723.743 1.596 1.114 2.62 1.114s1.888-.371 2.59-1.114c.723-.743 1.084-1.757 1.084-3.042zm26.042-8.402L253.963 30.57h-5.542l3.855-8.553-6.837-16.233h5.752l3.885 10.511 3.855-10.511h5.572zM10.765 25.6h16.071v1.506H10.765V25.6z"/>
      <path fill="#d4d6d4" style="fill:var(--color6, #d4d6d4)" d="M26.824 25.6h237.681v1.506H26.824V25.6z"/>
    </symbol>
    <symbol id="google-plus" viewBox="0 0 32 32">
      <path d="M10.181 14.294v3.494h5.775c-.231 1.5-1.744 4.394-5.775 4.394-3.475 0-6.313-2.881-6.313-6.431S6.706 9.32 10.181 9.32c1.981 0 3.3.844 4.056 1.569l2.762-2.662c-1.775-1.656-4.075-2.662-6.819-2.662C4.549 5.571-.001 10.121-.001 15.753s4.55 10.181 10.181 10.181c5.875 0 9.775-4.131 9.775-9.95a9.27 9.27 0 0 0-.163-1.688h-9.613zM32 14h-3v-3h-3v3h-3v3h3v3h3v-3h3z"/>
    </symbol>
    <symbol id="facebook" viewBox="0 0 32 32">
      <path d="M19 6h5V0h-5c-3.86 0-7 3.14-7 7v3H8v6h4v16h6V16h5l1-6h-6V7c0-.542.458-1 1-1z"/>
    </symbol>
    <symbol id="twitter" viewBox="0 0 32 32">
      <path d="M32 7.075a12.941 12.941 0 0 1-3.769 1.031 6.601 6.601 0 0 0 2.887-3.631 13.21 13.21 0 0 1-4.169 1.594A6.565 6.565 0 0 0 22.155 4a6.563 6.563 0 0 0-6.563 6.563c0 .512.056 1.012.169 1.494A18.635 18.635 0 0 1 2.23 5.195a6.56 6.56 0 0 0-.887 3.3 6.557 6.557 0 0 0 2.919 5.463 6.565 6.565 0 0 1-2.975-.819v.081a6.565 6.565 0 0 0 5.269 6.437 6.574 6.574 0 0 1-2.968.112 6.588 6.588 0 0 0 6.131 4.563 13.17 13.17 0 0 1-9.725 2.719 18.568 18.568 0 0 0 10.069 2.95c12.075 0 18.681-10.006 18.681-18.681 0-.287-.006-.569-.019-.85A13.216 13.216 0 0 0 32 7.076z"/>
    </symbol>
    <symbol id="linkedin" viewBox="0 0 32 32">
      <path d="M12 12h5.535v2.837h.079c.77-1.381 2.655-2.837 5.464-2.837C28.92 12 30 15.637 30 20.367V30h-5.769v-8.54c0-2.037-.042-4.657-3.001-4.657-3.005 0-3.463 2.218-3.463 4.509V30H12V12zM2 12h6v18H2V12zM8 7a3 3 0 1 1-6 0 3 3 0 0 1 6 0z"/>
    </symbol>
  </defs>
</svg>
